#tb 0: 1001/30000
0,          0,          0,        1,      408, f3f2cd8f157466ff23dace85d77367ce
0,          1,          1,        1,      408, 639d9b70a14062e95559c12d2b597f91
0,          2,          2,        1,      408, b2ee07a6656af583f19593229fa11848
0,          3,          3,        1,      408, 74e3b5ab4c798a0afe745694e871bbd5
0,          4,          4,        1,      408, 35f1c30d0f8678f319a392a6c53b5989
0,          5,          5,        1,      408, 07e2b4c0b92a394bfb11124fe80476f0
0,          6,          6,        1,      408, 7864bd20dfc5280e5f027d67ea22bf30
0,          7,          7,        1,      408, 10a2925a7b91dfa9b82de76069388fd4
0,          8,          8,        1,      408, 79cc7f7a149e8d6e04e065f75e63733c
0,          9,          9,        1,      408, 6453d10d97532d9bb03f7c06cba9fca0
